<?xml version="1.0" encoding="iso-8859-1"?>
<!-- Generator: Adobe Illustrator 19.0.0, SVG Export Plug-In . SVG Version: 6.00 Build 0)  -->
<svg version="1.1" id="Capa_1" xmlns="http://www.w3.org/2000/svg" xmlns:xlink="http://www.w3.org/1999/xlink" x="0px" y="0px"
	 viewBox="0 0 512 512" style="enable-background:new 0 0 512 512;" xml:space="preserve">
<path style="fill:#648093;" d="M478.095,492.266H33.905c-14.561,0-26.365-11.804-26.365-26.365V46.098
	c0-14.561,11.804-26.365,26.365-26.365h444.19c14.561,0,26.365,11.804,26.365,26.365v419.805
	C504.46,480.463,492.656,492.266,478.095,492.266z"/>
<g>
	<circle style="fill:#EA2E1B;" cx="72.026" cy="143.399" r="12.062"/>
	<circle style="fill:#EA2E1B;" cx="439.975" cy="143.399" r="12.062"/>
</g>
<path style="fill:#586F7F;" d="M504.456,46.168V465.83c0,14.598-11.832,26.44-26.43,26.44h-50.86c14.598,0,26.44-11.842,26.44-26.44
	V46.168c0-14.598-11.842-26.44-26.44-26.44h50.86C492.624,19.728,504.456,31.571,504.456,46.168z"/>
<circle style="fill:#276FD8;" cx="398.626" cy="374.692" r="12.202"/>
<circle style="fill:#EA2E1B;" cx="467.799" cy="374.692" r="12.202"/>
<circle style="fill:#FFD527;" cx="433.217" cy="342.968" r="12.202"/>
<circle style="fill:#34E881;" cx="433.217" cy="406.416" r="12.202"/>
<path style="fill:#E1F0F4;" d="M353.845,453h-195.69c-2.768,0-5.013-2.245-5.013-5.013V304.198c0-2.768,2.245-5.013,5.013-5.013
	h195.69c2.768,0,5.013,2.245,5.013,5.013v143.788C358.858,450.755,356.613,453,353.845,453z"/>
<path style="fill:#C3D9DF;" d="M358.854,304.215v143.761c0,2.774-2.252,5.026-5.026,5.026h-39.57c2.774,0,5.026-2.252,5.026-5.026
	V304.215c0-2.774-2.252-5.026-5.026-5.026h39.57C356.603,299.188,358.854,301.44,358.854,304.215z"/>
<path style="fill:#E1F0F4;" d="M393.417,219.808H118.583c-2.768,0-5.013-2.245-5.013-5.013V71.007c0-2.768,2.245-5.013,5.013-5.013
	h274.834c2.768,0,5.013,2.245,5.013,5.013v143.788C398.43,217.564,396.185,219.808,393.417,219.808z"/>
<path style="fill:#C3D9DF;" d="M393.417,219.808H366.65V65.993h26.767c2.768,0,5.013,2.245,5.013,5.013v143.788
	C398.43,217.564,396.185,219.808,393.417,219.808z"/>
<circle style="fill:#FFD527;" cx="72.026" cy="330.906" r="24.264"/>
<path style="fill:#F4CA19;" d="M96.294,330.906c0,13.401-10.868,24.268-24.268,24.268c-3.378,0-6.595-0.694-9.51-1.94
	c8.676-3.7,14.758-12.306,14.758-22.328c0-10.024-6.082-18.628-14.758-22.328c2.916-1.246,6.132-1.94,9.51-1.94
	C85.426,306.638,96.294,317.505,96.294,330.906z"/>
<path d="M478.025,12.193H113.57c-4.164,0-7.54,3.375-7.54,7.54s3.376,7.54,7.54,7.54h364.455c10.419,0,18.895,8.476,18.895,18.895
	V248.46H15.08V46.168c0-10.419,8.476-18.895,18.895-18.895h25.987c4.164,0,7.54-3.375,7.54-7.54s-3.376-7.54-7.54-7.54H33.975
	C15.241,12.193,0,27.433,0,46.168v419.664c0,18.734,15.241,33.975,33.975,33.975h444.05c18.734,0,33.975-15.241,33.975-33.975
	V46.168C512,27.433,496.76,12.193,478.025,12.193z M496.92,465.831c0,10.419-8.476,18.895-18.895,18.895H33.975
	c-10.419,0-18.895-8.476-18.895-18.895V263.539h481.84V465.831z"/>
<path d="M118.596,227.348h274.807c6.929,0,12.566-5.637,12.566-12.566V71.02c0-6.929-5.637-12.566-12.566-12.566H118.596
	c-6.929,0-12.566,5.637-12.566,12.566v143.762C106.03,221.711,111.667,227.348,118.596,227.348z M121.11,73.533h269.78v138.734
	H121.11V73.533z"/>
<path d="M158.168,460.54h195.663c6.929,0,12.566-5.637,12.566-12.566V304.212c0-6.929-5.637-12.566-12.566-12.566h-53.263
	c-4.164,0-7.54,3.375-7.54,7.54c0,4.165,3.376,7.54,7.54,7.54h50.749V445.46H160.682V306.725h86.605c4.164,0,7.54-3.375,7.54-7.54
	c0-4.165-3.376-7.54-7.54-7.54h-89.119c-6.929,0-12.566,5.637-12.566,12.566v143.762C145.602,454.902,151.24,460.54,158.168,460.54z
	"/>
<path d="M52.422,143.403c0,10.81,8.794,19.604,19.604,19.604s19.604-8.794,19.604-19.604s-8.794-19.604-19.604-19.604
	S52.422,132.594,52.422,143.403z M72.026,138.879c2.495,0,4.524,2.029,4.524,4.524s-2.029,4.524-4.524,4.524
	s-4.524-2.029-4.524-4.524S69.531,138.879,72.026,138.879z"/>
<path d="M459.578,143.403c0-10.81-8.794-19.604-19.604-19.604c-10.81,0-19.604,8.794-19.604,19.604s8.794,19.604,19.604,19.604
	C450.784,163.007,459.578,154.212,459.578,143.403z M435.45,143.403c0-2.495,2.029-4.524,4.524-4.524
	c2.495,0,4.524,2.029,4.524,4.524s-2.029,4.524-4.524,4.524C437.48,147.927,435.45,145.898,435.45,143.403z"/>
<path d="M72.026,362.71c17.538,0,31.806-14.268,31.806-31.806s-14.269-31.806-31.806-31.806S40.22,313.365,40.22,330.904
	S54.487,362.71,72.026,362.71z M72.026,314.178c9.223,0,16.726,7.504,16.726,16.726s-7.504,16.726-16.726,16.726
	c-9.223,0-16.726-7.504-16.726-16.726S62.802,314.178,72.026,314.178z"/>
<path d="M398.626,394.435c10.886,0,19.742-8.856,19.742-19.742c0-10.887-8.856-19.743-19.742-19.743
	c-10.886,0-19.742,8.856-19.742,19.743C378.882,385.579,387.739,394.435,398.626,394.435z M398.626,370.029
	c2.571,0,4.662,2.093,4.662,4.663s-2.092,4.662-4.662,4.662s-4.663-2.092-4.663-4.662S396.054,370.029,398.626,370.029z"/>
<path d="M467.803,394.435c10.886,0,19.742-8.856,19.742-19.742c0-10.887-8.856-19.743-19.742-19.743
	c-10.886,0-19.742,8.856-19.742,19.743C448.061,385.579,456.917,394.435,467.803,394.435z M467.803,370.029
	c2.571,0,4.663,2.093,4.663,4.663s-2.092,4.662-4.663,4.662c-2.571,0-4.662-2.092-4.662-4.662S465.232,370.029,467.803,370.029z"/>
<path d="M433.214,362.71c10.886,0,19.742-8.856,19.742-19.742s-8.856-19.742-19.742-19.742s-19.742,8.856-19.742,19.742
	C413.471,353.854,422.327,362.71,433.214,362.71z M433.214,338.305c2.571,0,4.663,2.092,4.663,4.662s-2.092,4.662-4.663,4.662
	c-2.571,0-4.663-2.092-4.663-4.662S430.643,338.305,433.214,338.305z"/>
<path d="M433.214,386.675c-10.886,0-19.742,8.856-19.742,19.742c0,10.887,8.856,19.743,19.742,19.743s19.742-8.856,19.742-19.743
	C452.957,395.531,444.1,386.675,433.214,386.675z M433.214,411.08c-2.571,0-4.663-2.093-4.663-4.663s2.092-4.662,4.663-4.662
	c2.571,0,4.663,2.092,4.663,4.662C437.877,408.988,435.785,411.08,433.214,411.08z"/>
<path d="M45.506,428.274h18.98v18.98c0,4.165,3.376,7.54,7.54,7.54s7.54-3.375,7.54-7.54v-18.98h18.98c4.164,0,7.54-3.375,7.54-7.54
	c0-4.165-3.376-7.54-7.54-7.54h-18.98v-18.98c0-4.165-3.376-7.54-7.54-7.54s-7.54,3.375-7.54,7.54v18.98h-18.98
	c-4.164,0-7.54,3.375-7.54,7.54C37.966,424.898,41.341,428.274,45.506,428.274z"/>
<path d="M226.819,135.95c1.733,0,3.473-0.594,4.894-1.807l36.478-31.159c3.166-2.705,3.54-7.465,0.836-10.63
	c-2.704-3.167-7.464-3.539-10.63-0.836l-36.478,31.159c-3.166,2.705-3.54,7.465-0.836,10.63
	C222.573,135.053,224.689,135.95,226.819,135.95z"/>
<path d="M296.653,106.002l-91.105,77.819c-3.166,2.705-3.54,7.465-0.836,10.63c1.491,1.747,3.607,2.643,5.736,2.643
	c1.733,0,3.473-0.594,4.894-1.807l91.105-77.819c3.166-2.705,3.54-7.465,0.836-10.63
	C304.578,103.671,299.819,103.299,296.653,106.002z"/>
<g>
</g>
<g>
</g>
<g>
</g>
<g>
</g>
<g>
</g>
<g>
</g>
<g>
</g>
<g>
</g>
<g>
</g>
<g>
</g>
<g>
</g>
<g>
</g>
<g>
</g>
<g>
</g>
<g>
</g>
</svg>
